<svg xmlns="http://www.w3.org/2000/svg" xmlns:xlink="http://www.w3.org/1999/xlink" width="1018.129" height="183.75"
     viewBox="0 0 1018.129 183.75">
    <g id="almond" transform="translate(0 0)">
        <path id="Tracé_1" data-name="Tracé 1"
              d="M99.5-451.6c-6.914,4.391-19.246,16.116-26.16,24.852a138.928,138.928,0,0,0-29.617,72.78c-.934,8.5-.888,23.264,0,30.317,2.709,20.554,11.258,36.11,24.945,45.219,6.447,4.3,12.332,6.633,21.068,8.5,5.606,1.168,19.48,1.121,25.693-.047,10.23-2.009,19.2-6.073,25.459-11.538l1.588-1.448,4.625,3.083c17.191,11.445,34.989,12.566,51.058,3.27,21.535-12.519,39.66-44.939,43.444-77.685.794-7.287.327-24.011-.934-31.112-1.915-10.7-5.606-22.563-7.614-24.338-.794-.747-1.588-.888-5.185-.747-22.656.654-50.871,12.379-68.9,28.729-1.121.981-2.149,1.728-2.289,1.588-.093-.14-.934-2.429-1.869-5.092-8.922-26.02-27.094-50.965-47.975-65.68C103.561-453.282,102.3-453.375,99.5-451.6Zm6.867,10.464c12.379,9.81,24.618,24.805,32.793,40.081,16.07,30.177,20.134,71.052,9.483,95.81-4.718,10.884-13.5,19.807-23.777,24.2a9.388,9.388,0,0,1-2.756.841,6.849,6.849,0,0,1,1.215-2.476c7.568-12.379,11.3-37.558,9.95-66.941-.561-12.005-1.4-21.488-2.663-30.177-1.215-8.128-3.55-19.573-4.251-20.694a3.849,3.849,0,0,0-6.26-.467c-1.121,1.215-1.168,2.85-.234,6.82,2.569,10.838,4.671,28.262,5.419,44.705,1.495,32.326-3.036,57.178-12.332,67.361-3.317,3.6-6.213,5-10.37,5.045a9.266,9.266,0,0,1-5.746-1.4c-3.363-1.822-6.12-5-8.642-9.9-3.41-6.633-6.213-16.77-7.1-25.833-.514-5.045-1.028-6.446-2.616-7.287a3.907,3.907,0,0,0-5.559,1.962c-.234.561-.093,3.27.234,6.26,1.495,11.865,4.251,21.909,7.941,28.869,1.168,2.2,2.009,4.064,1.869,4.2-.467.467-8.829-4.017-11.912-6.353-9.576-7.241-15.7-18.125-18.779-33.354-.981-4.765-1.074-6.54-1.074-18.592,0-14.248.42-18.265,2.85-29.383,5.886-26.58,20.227-51.339,39.94-69,4.111-3.644,8.268-7.1,8.689-7.194C102.72-444.032,104.4-442.724,106.364-441.136Zm122.811,42.51a128.07,128.07,0,0,1,4.017,18.592c.934,6.54.794,22.329-.187,28.963a113.137,113.137,0,0,1-14.762,41.529c-9.67,16.35-20.414,26.02-32.98,29.71a28.277,28.277,0,0,1-9.576,1.308,28.894,28.894,0,0,1-6.213-.42c-.7-.42-.514-.607,1.168-1.542,13.921-7.661,31.625-30.551,45.873-59.373,4.671-9.483,9.156-20.321,9.156-22.189,0-2.85-4.251-4.578-6.447-2.709-.514.467-1.915,3.363-3.13,6.446-7.755,19.947-23.45,46.107-35.362,58.906-9.062,9.81-15.789,14.154-22.376,14.575-4.017.234-6.4-.654-8.5-3.177l-1.215-1.448,2.569-3.924c6.867-10.557,10.417-23.263,11.211-40.174a151.172,151.172,0,0,0-2.9-34.1l-.7-3.27,2.476-2.242a111.689,111.689,0,0,1,53.861-27.655c5.979-1.168,7.708-1.448,10.838-1.542l1.962-.093Z"
              transform="translate(-43.037 452.827)" fill="#fff"/>
        <path id="Tracé_2" data-name="Tracé 2"
              d="M119.761-390.247c-.7.514-1.588,2.523-2.9,6.446-5.372,16.63-8.782,34.195-10.557,55.076-.327,3.6-.28,3.644,1.074,5.045,1.588,1.542,2.756,1.728,4.718.7,1.728-.841,1.822-1.168,2.382-7.381,1.682-18.405,5.139-36.157,10-51.058a41.813,41.813,0,0,0,1.682-6.213C126.161-390.247,122.1-391.882,119.761-390.247Z"
              transform="translate(-76.662 419.829)" fill="#fff"/>
        <path id="Tracé_3" data-name="Tracé 3"
              d="M345.764-331.555c-6.026,4.344-15.7,13.313-22.75,21.068-6.96,7.614-14.108,16.537-14.388,17.938-.561,2.99,2.663,5.7,5.232,4.391.747-.374,3.223-3.036,5.559-5.933a191.646,191.646,0,0,1,29.056-29.523,34.45,34.45,0,0,0,3.644-3.13,4.2,4.2,0,0,0-.607-5.045C349.969-333.377,348.1-333.284,345.764-331.555Z"
              transform="translate(-184.526 388.933)" fill="#fff"/>
    </g>
    <text id="magnesium" transform="translate(259.129 153.506)" fill="#fff" font-size="150"
          font-family="PierSans-Regular, Pier Sans">
        <tspan x="0" y="0">magnesium</tspan>
    </text>
</svg>
