<svg xmlns="http://www.w3.org/2000/svg" xmlns:xlink="http://www.w3.org/1999/xlink" width="260.211" height="240.326"
     viewBox="0 0 260.211 240.326">
    <defs>
        <linearGradient id="linear-gradient" x1="0.605" y1="0.985" x2="0.252" y2="0.126"
                        gradientUnits="objectBoundingBox">
            <stop offset="0" stop-color="#0017bf"/>
            <stop offset="0.002" stop-color="#0017bf"/>
            <stop offset="0.201" stop-color="#0040ca"/>
            <stop offset="0.461" stop-color="#0071d7"/>
            <stop offset="0.691" stop-color="#0094e1"/>
            <stop offset="0.878" stop-color="#00aae6"/>
            <stop offset="1" stop-color="#00b2e9"/>
        </linearGradient>
    </defs>
    <g id="almond" transform="translate(-43.037 452.827)">
        <path id="Tracé_1" data-name="Tracé 1"
              d="M116.88-451.222c-9.042,5.743-25.172,21.078-34.214,32.5A181.7,181.7,0,0,0,43.931-323.53c-1.222,11.12-1.161,30.426,0,39.652C47.475-257,58.655-236.65,76.557-224.737c8.431,5.621,16.13,8.676,27.555,11.12,7.332,1.527,25.477,1.466,33.6-.061,13.38-2.627,25.111-7.943,33.3-15.091l2.077-1.894,6.049,4.032c22.484,14.969,45.761,16.435,66.779,4.277,28.166-16.374,51.871-58.775,56.82-101.6,1.039-9.531.428-31.4-1.222-40.69-2.5-13.991-7.332-29.51-9.959-31.831-1.039-.978-2.077-1.161-6.782-.978-29.632.855-66.534,16.191-90.118,37.574-1.466,1.283-2.81,2.261-2.994,2.077-.122-.183-1.222-3.177-2.444-6.66-11.669-34.031-35.436-66.657-62.746-85.9C122.2-453.422,120.546-453.544,116.88-451.222Zm8.981,13.686c16.191,12.83,32.2,32.442,42.89,52.421,21.017,39.468,26.333,92.928,12.4,125.309-6.171,14.236-17.657,25.905-31.1,31.648a12.282,12.282,0,0,1-3.6,1.1,8.957,8.957,0,0,1,1.589-3.238c9.9-16.191,14.785-49.122,13.014-87.552-.733-15.7-1.833-28.1-3.483-39.468-1.589-10.631-4.643-25.6-5.56-27.066-1.894-2.994-5.682-3.238-8.187-.611-1.466,1.589-1.527,3.727-.305,8.92,3.36,14.174,6.11,36.964,7.087,58.47,1.955,42.279-3.971,74.782-16.13,88.1-4.338,4.7-8.126,6.537-13.563,6.6-3.6,0-4.766-.306-7.515-1.833-4.4-2.383-8-6.537-11.3-12.953-4.46-8.676-8.126-21.934-9.287-33.786-.672-6.6-1.344-8.431-3.421-9.531a5.11,5.11,0,0,0-7.271,2.566c-.305.733-.122,4.277.305,8.187,1.955,15.519,5.56,28.654,10.386,37.758,1.527,2.872,2.627,5.315,2.444,5.5-.611.611-11.547-5.254-15.58-8.309-12.525-9.47-20.528-23.706-24.561-43.623-1.283-6.232-1.405-8.554-1.405-24.317,0-18.634.55-23.889,3.727-38.43,7.7-34.764,26.455-67.145,52.238-90.24,5.377-4.766,10.814-9.287,11.364-9.409C121.1-441.324,123.3-439.614,125.862-437.536Zm160.623,55.6a167.5,167.5,0,0,1,5.254,24.316c1.222,8.554,1.039,29.2-.244,37.88a147.972,147.972,0,0,1-19.307,54.315c-12.647,21.384-26.7,34.031-43.134,38.858-4.46,1.344-6.782,1.65-12.525,1.711-3.91,0-7.576-.244-8.126-.55-.916-.55-.672-.794,1.527-2.016,18.207-10.02,41.362-39.957,60-77.654,6.11-12.4,11.975-26.577,11.975-29.021,0-3.727-5.56-5.987-8.431-3.544-.672.611-2.5,4.4-4.093,8.431-10.142,26.088-30.671,60.3-46.25,77.043-11.853,12.83-20.651,18.512-29.265,19.062-5.254.306-8.37-.855-11.12-4.155l-1.589-1.894,3.36-5.132c8.981-13.808,13.625-30.426,14.663-52.543a197.716,197.716,0,0,0-3.788-44.6l-.916-4.277,3.238-2.933c20.467-18.7,44.234-30.915,70.445-36.169,7.82-1.527,10.081-1.894,14.174-2.016l2.566-.122Z"
              fill="url(#linear-gradient)"/>
        <path id="Tracé_2" data-name="Tracé 2"
              d="M123.955-390.045c-.916.672-2.077,3.3-3.788,8.431-7.026,21.75-11.486,44.723-13.808,72.033-.428,4.7-.367,4.766,1.405,6.6,2.077,2.016,3.6,2.261,6.171.916,2.261-1.1,2.383-1.527,3.116-9.653,2.2-24.072,6.721-47.289,13.075-66.779a54.687,54.687,0,0,0,2.2-8.126C132.326-390.045,127.01-392.184,123.955-390.045Z"
              transform="translate(-24.549 -24.091)" fill="url(#linear-gradient)"/>
        <path id="Tracé_3" data-name="Tracé 3"
              d="M357.218-331.136c-7.882,5.682-20.529,17.413-29.754,27.555-9.1,9.959-18.451,21.628-18.818,23.461-.733,3.91,3.482,7.454,6.843,5.743.978-.489,4.216-3.971,7.271-7.759,11.486-14.48,25.722-28.9,38-38.613a45.06,45.06,0,0,0,4.766-4.094c1.283-1.711.917-4.949-.794-6.6C362.717-333.518,360.273-333.4,357.218-331.136Z"
              transform="translate(-103.298 -46.648)" fill="url(#linear-gradient)"/>
    </g>
</svg>
